<svg width="304" height="48" viewBox="0 0 304 48" fill="none" xmlns="http://www.w3.org/2000/svg">
<g filter="url(#filter0_d_319_41)">
<path d="M2 5C2 2.79086 3.79086 1 6 1H232V45H6C3.79087 45 2 43.2091 2 41V5Z" fill="#170027"/>
<path d="M32.3538 23.3447H29.8313L29.8176 22.2852H32.1077C32.4859 22.2852 32.8163 22.2214 33.0989 22.0938C33.3814 21.9661 33.6002 21.7839 33.7551 21.5469C33.9146 21.3053 33.9944 21.0182 33.9944 20.6855C33.9944 20.321 33.9237 20.0247 33.7825 19.7969C33.6458 19.5645 33.4338 19.3958 33.1467 19.291C32.8642 19.1816 32.5042 19.127 32.0667 19.127H30.1252V28H28.8059V18.0469H32.0667C32.5771 18.0469 33.0328 18.0993 33.4338 18.2041C33.8349 18.3044 34.1744 18.4639 34.4524 18.6826C34.7349 18.8968 34.9491 19.1702 35.095 19.5029C35.2408 19.8356 35.3137 20.2344 35.3137 20.6992C35.3137 21.1094 35.2089 21.4808 34.9993 21.8135C34.7896 22.1416 34.498 22.4105 34.1243 22.6201C33.7551 22.8298 33.3222 22.9642 32.8254 23.0234L32.3538 23.3447ZM32.2922 28H29.3118L30.0569 26.9268H32.2922C32.7115 26.9268 33.067 26.8538 33.3586 26.708C33.6549 26.5622 33.8805 26.3571 34.0354 26.0928C34.1903 25.8239 34.2678 25.5072 34.2678 25.1426C34.2678 24.7734 34.2017 24.4544 34.0696 24.1855C33.9374 23.9167 33.7301 23.7093 33.4475 23.5635C33.165 23.4176 32.8004 23.3447 32.3538 23.3447H30.4739L30.4875 22.2852H33.0579L33.3381 22.668C33.8167 22.709 34.2222 22.8457 34.5549 23.0781C34.8876 23.306 35.1405 23.5977 35.3137 23.9531C35.4915 24.3086 35.5803 24.7005 35.5803 25.1289C35.5803 25.7487 35.4436 26.2728 35.1702 26.7012C34.9013 27.125 34.5208 27.4486 34.0286 27.6719C33.5364 27.8906 32.9576 28 32.2922 28ZM41.8625 26.291V20.6035H43.134V28H41.9241L41.8625 26.291ZM42.1018 24.7324L42.6282 24.7188C42.6282 25.2109 42.5758 25.6667 42.4709 26.0859C42.3707 26.5007 42.2066 26.8607 41.9788 27.166C41.7509 27.4714 41.4524 27.7106 41.0833 27.8838C40.7141 28.0524 40.2652 28.1367 39.7366 28.1367C39.3765 28.1367 39.0461 28.0843 38.7454 27.9795C38.4491 27.8747 38.1939 27.7129 37.9797 27.4941C37.7655 27.2754 37.5992 26.9906 37.4807 26.6396C37.3668 26.2887 37.3098 25.8672 37.3098 25.375V20.6035H38.5745V25.3887C38.5745 25.7214 38.6109 25.9971 38.6838 26.2158C38.7613 26.43 38.8639 26.6009 38.9915 26.7285C39.1236 26.8516 39.2694 26.9382 39.429 26.9883C39.593 27.0384 39.7616 27.0635 39.9348 27.0635C40.4726 27.0635 40.8987 26.9609 41.2131 26.7559C41.5276 26.5462 41.7532 26.266 41.8899 25.915C42.0312 25.5596 42.1018 25.1654 42.1018 24.7324ZM49.3684 26.0381C49.3684 25.8558 49.3274 25.6872 49.2454 25.5322C49.1679 25.3727 49.0061 25.2292 48.76 25.1016C48.5185 24.9694 48.1539 24.8555 47.6663 24.7598C47.2561 24.6732 46.8847 24.5706 46.552 24.4521C46.2239 24.3337 45.9436 24.1901 45.7112 24.0215C45.4833 23.8529 45.3079 23.6546 45.1848 23.4268C45.0618 23.1989 45.0002 22.9323 45.0002 22.627C45.0002 22.3353 45.064 22.0596 45.1917 21.7998C45.3238 21.54 45.5084 21.3099 45.7454 21.1094C45.9869 20.9089 46.2763 20.7516 46.6135 20.6377C46.9508 20.5238 47.3267 20.4668 47.7415 20.4668C48.3339 20.4668 48.8398 20.5716 49.259 20.7812C49.6783 20.9909 49.9996 21.2712 50.2229 21.6221C50.4462 21.9684 50.5579 22.3535 50.5579 22.7773H49.2932C49.2932 22.5723 49.2317 22.374 49.1086 22.1826C48.9902 21.9867 48.8147 21.8249 48.5823 21.6973C48.3544 21.5697 48.0741 21.5059 47.7415 21.5059C47.3905 21.5059 47.1057 21.5605 46.887 21.6699C46.6728 21.7747 46.5155 21.9092 46.4153 22.0732C46.3196 22.2373 46.2717 22.4105 46.2717 22.5928C46.2717 22.7295 46.2945 22.8525 46.3401 22.9619C46.3902 23.0667 46.4768 23.1647 46.5999 23.2559C46.7229 23.3424 46.8961 23.4245 47.1194 23.502C47.3427 23.5794 47.6275 23.6569 47.9739 23.7344C48.58 23.8711 49.079 24.0352 49.4709 24.2266C49.8629 24.418 50.1545 24.6527 50.3459 24.9307C50.5374 25.2087 50.6331 25.5459 50.6331 25.9424C50.6331 26.266 50.5647 26.5622 50.428 26.8311C50.2958 27.0999 50.1021 27.3324 49.8469 27.5283C49.5963 27.7197 49.2955 27.8701 48.9446 27.9795C48.5982 28.0843 48.2086 28.1367 47.7756 28.1367C47.1239 28.1367 46.5725 28.0205 46.1213 27.7881C45.6702 27.5557 45.3284 27.2549 45.0959 26.8857C44.8635 26.5166 44.7473 26.127 44.7473 25.7168H46.0188C46.037 26.0632 46.1373 26.3389 46.3196 26.5439C46.5019 26.7445 46.7252 26.888 46.9895 26.9746C47.2538 27.0566 47.5159 27.0977 47.7756 27.0977C48.122 27.0977 48.4114 27.0521 48.6438 26.9609C48.8808 26.8698 49.0608 26.7445 49.1838 26.585C49.3069 26.4255 49.3684 26.2432 49.3684 26.0381ZM55.2542 27.0977C55.5549 27.0977 55.8329 27.0361 56.0881 26.9131C56.3433 26.79 56.553 26.6214 56.717 26.4072C56.8811 26.1885 56.9745 25.9401 56.9973 25.6621H58.2004C58.1777 26.0996 58.0295 26.5075 57.7561 26.8857C57.4872 27.2594 57.134 27.5625 56.6965 27.7949C56.259 28.0228 55.7782 28.1367 55.2542 28.1367C54.6982 28.1367 54.2128 28.0387 53.7981 27.8428C53.3879 27.6468 53.0461 27.3779 52.7727 27.0361C52.5038 26.6943 52.301 26.3024 52.1643 25.8604C52.0321 25.4137 51.9661 24.9421 51.9661 24.4453V24.1582C51.9661 23.6615 52.0321 23.1921 52.1643 22.75C52.301 22.3034 52.5038 21.9092 52.7727 21.5674C53.0461 21.2256 53.3879 20.9567 53.7981 20.7607C54.2128 20.5648 54.6982 20.4668 55.2542 20.4668C55.8329 20.4668 56.3388 20.5853 56.7717 20.8223C57.2047 21.0547 57.5442 21.3737 57.7903 21.7793C58.0409 22.1803 58.1777 22.6361 58.2004 23.1465H56.9973C56.9745 22.8411 56.8879 22.5654 56.7375 22.3193C56.5917 22.0732 56.3912 21.8773 56.136 21.7314C55.8853 21.5811 55.5914 21.5059 55.2542 21.5059C54.8668 21.5059 54.5409 21.5833 54.2766 21.7383C54.0168 21.8887 53.8095 22.0938 53.6545 22.3535C53.5042 22.6087 53.3948 22.8936 53.3264 23.208C53.2626 23.5179 53.2307 23.8346 53.2307 24.1582V24.4453C53.2307 24.7689 53.2626 25.0879 53.3264 25.4023C53.3902 25.7168 53.4973 26.0016 53.6477 26.2568C53.8027 26.512 54.01 26.7171 54.2698 26.8721C54.5341 27.0225 54.8622 27.0977 55.2542 27.0977ZM63.9836 26.7354V22.9277C63.9836 22.6361 63.9244 22.3831 63.8059 22.1689C63.692 21.9502 63.5188 21.7816 63.2864 21.6631C63.054 21.5446 62.7668 21.4854 62.425 21.4854C62.106 21.4854 61.8258 21.54 61.5842 21.6494C61.3472 21.7588 61.1604 21.9023 61.0237 22.0801C60.8915 22.2578 60.8254 22.4492 60.8254 22.6543H59.5608C59.5608 22.39 59.6292 22.1279 59.7659 21.8682C59.9026 21.6084 60.0986 21.3737 60.3538 21.1641C60.6135 20.9499 60.9234 20.7812 61.2834 20.6582C61.648 20.5306 62.0536 20.4668 62.5002 20.4668C63.038 20.4668 63.512 20.5579 63.9221 20.7402C64.3368 20.9225 64.6604 21.1982 64.8928 21.5674C65.1298 21.932 65.2483 22.39 65.2483 22.9414V26.3867C65.2483 26.6328 65.2688 26.8949 65.3098 27.1729C65.3554 27.4508 65.4215 27.6901 65.5081 27.8906V28H64.1887C64.1249 27.8542 64.0748 27.6605 64.0383 27.4189C64.0019 27.1729 63.9836 26.945 63.9836 26.7354ZM64.2024 23.5156L64.2161 24.4043H62.9377C62.5777 24.4043 62.2564 24.4339 61.9739 24.4932C61.6913 24.5479 61.4543 24.6322 61.2629 24.7461C61.0715 24.86 60.9257 25.0036 60.8254 25.1768C60.7252 25.3454 60.675 25.5436 60.675 25.7715C60.675 26.0039 60.7275 26.2158 60.8323 26.4072C60.9371 26.5986 61.0943 26.7513 61.304 26.8652C61.5181 26.9746 61.7802 27.0293 62.0901 27.0293C62.4775 27.0293 62.8193 26.9473 63.1155 26.7832C63.4117 26.6191 63.6464 26.4186 63.8196 26.1816C63.9973 25.9447 64.093 25.7145 64.1067 25.4912L64.6467 26.0996C64.6148 26.291 64.5282 26.5029 64.387 26.7354C64.2457 26.9678 64.0566 27.1911 63.8196 27.4053C63.5872 27.6149 63.3092 27.7904 62.9856 27.9316C62.6666 28.0684 62.3066 28.1367 61.9055 28.1367C61.4042 28.1367 60.9644 28.0387 60.5862 27.8428C60.2125 27.6468 59.9208 27.3848 59.7112 27.0566C59.5061 26.724 59.4036 26.3525 59.4036 25.9424C59.4036 25.5459 59.481 25.1973 59.636 24.8965C59.7909 24.5911 60.0142 24.3382 60.3059 24.1377C60.5976 23.9326 60.9485 23.7777 61.3586 23.6729C61.7688 23.568 62.2268 23.5156 62.7327 23.5156H64.2024ZM68.5022 21.7656V28H67.2375V20.6035H68.468L68.5022 21.7656ZM70.8127 20.5625L70.8059 21.7383C70.7011 21.7155 70.6008 21.7018 70.5051 21.6973C70.414 21.6882 70.3092 21.6836 70.1907 21.6836C69.899 21.6836 69.6415 21.7292 69.4182 21.8203C69.1949 21.9115 69.0058 22.0391 68.8508 22.2031C68.6959 22.3672 68.5728 22.5632 68.4817 22.791C68.3951 23.0143 68.3381 23.2604 68.3108 23.5293L67.9553 23.7344C67.9553 23.2878 67.9986 22.8685 68.0852 22.4766C68.1764 22.0846 68.3153 21.7383 68.5022 21.4375C68.689 21.1322 68.926 20.8952 69.2131 20.7266C69.5048 20.5534 69.8512 20.4668 70.2522 20.4668C70.3433 20.4668 70.4482 20.4782 70.5667 20.501C70.6851 20.5192 70.7672 20.5397 70.8127 20.5625Z" fill="#FBF6FF"/>
<path d="M232 1H298C300.209 1 302 2.79086 302 5V41C302 43.2091 300.209 45 298 45H232V1Z" fill="#9E6DC2"/>
<path d="M266 30C270.418 30 274 26.4183 274 22C274 17.5817 270.418 14 266 14C261.582 14 258 17.5817 258 22C258 26.4183 261.582 30 266 30Z" stroke="#F2E7FA" stroke-width="2" stroke-linecap="round" stroke-linejoin="round"/>
<path d="M276 32L271.65 27.65" stroke="#F2E7FA" stroke-width="2" stroke-linecap="round" stroke-linejoin="round"/>
</g>
<defs>
<filter id="filter0_d_319_41" x="0" y="0" width="304" height="48" filterUnits="userSpaceOnUse" color-interpolation-filters="sRGB">
<feFlood flood-opacity="0" result="BackgroundImageFix"/>
<feColorMatrix in="SourceAlpha" type="matrix" values="0 0 0 0 0 0 0 0 0 0 0 0 0 0 0 0 0 0 127 0" result="hardAlpha"/>
<feOffset dy="1"/>
<feGaussianBlur stdDeviation="1"/>
<feComposite in2="hardAlpha" operator="out"/>
<feColorMatrix type="matrix" values="0 0 0 0 0 0 0 0 0 0 0 0 0 0 0 0 0 0 0.25 0"/>
<feBlend mode="normal" in2="BackgroundImageFix" result="effect1_dropShadow_319_41"/>
<feBlend mode="normal" in="SourceGraphic" in2="effect1_dropShadow_319_41" result="shape"/>
</filter>
</defs>
</svg>
